<svg width="551" height="388" viewBox="0 0 551 388" fill="none" xmlns="http://www.w3.org/2000/svg">
    <path
        d="M236.75 206.119C236.743 205.404 236.942 204.701 237.323 204.096C237.705 203.491 238.253 203.009 238.901 202.707C239.55 202.405 240.272 202.296 240.98 202.394C241.689 202.491 242.355 202.79 242.898 203.256C243.634 201.261 245.129 199.637 247.057 198.739C248.985 197.841 251.19 197.741 253.191 198.461C253.477 197.119 254.098 195.872 254.998 194.836C255.898 193.8 257.046 193.01 258.335 192.539C259.624 192.069 261.011 191.933 262.367 192.146C263.722 192.359 265.001 192.912 266.084 193.754C266.69 191.376 267.974 189.226 269.781 187.565C271.587 185.904 273.838 184.805 276.259 184.401C278.679 183.997 281.165 184.306 283.414 185.29C285.662 186.274 287.575 187.891 288.92 189.943C290.327 189.483 291.822 189.358 293.285 189.578C294.749 189.798 296.141 190.356 297.351 191.209C298.561 192.062 299.554 193.186 300.253 194.491C300.951 195.795 301.335 197.245 301.374 198.725L301.673 198.391C302.415 197.65 303.343 197.124 304.36 196.867C305.377 196.611 306.444 196.635 307.448 196.935C308.453 197.236 309.357 197.802 310.066 198.575C310.775 199.348 311.261 200.298 311.474 201.324C312.444 200.447 313.712 199.975 315.019 200.004C316.326 200.034 317.572 200.563 318.501 201.482C319.006 201.977 319.395 202.576 319.642 203.238C319.848 202.807 320.127 202.415 320.468 202.079C320.881 201.666 321.371 201.338 321.91 201.115C322.45 200.891 323.028 200.776 323.612 200.776C324.196 200.776 324.775 200.891 325.314 201.115C325.854 201.338 326.344 201.666 326.756 202.079C327.442 202.753 327.881 203.637 328.004 204.591C328.377 204.363 328.796 204.22 329.231 204.171C329.666 204.122 330.106 204.168 330.521 204.307C330.936 204.446 331.315 204.674 331.633 204.974C331.951 205.275 332.199 205.642 332.36 206.049C332.73 205.855 333.145 205.765 333.562 205.786C333.979 205.808 334.383 205.941 334.731 206.171L334.819 206.207C335.429 206.27 335.992 206.56 336.398 207.02C336.803 207.48 337.021 208.075 337.007 208.688C336.994 209.3 336.751 209.886 336.326 210.327C335.901 210.769 335.326 211.035 334.714 211.072H225.806C225.258 211.081 224.722 210.905 224.287 210.571C223.852 210.237 223.543 209.766 223.411 209.234C223.278 208.702 223.33 208.141 223.558 207.642C223.785 207.143 224.176 206.736 224.664 206.488C224.787 205.821 225.13 205.215 225.637 204.766C226.144 204.316 226.786 204.049 227.463 204.007C228.139 203.964 228.81 204.149 229.369 204.532C229.929 204.914 230.344 205.473 230.549 206.119C230.608 205.337 230.96 204.606 231.535 204.073C232.11 203.54 232.865 203.244 233.649 203.244C234.434 203.244 235.189 203.54 235.764 204.073C236.339 204.606 236.691 205.337 236.75 206.119ZM236.75 206.119V206.242C236.75 206.242 236.75 206.242 236.75 206.119Z"
        stroke="#645CBB" stroke-opacity="0.23" stroke-width="0.75" stroke-linecap="round"
        stroke-linejoin="round" />
    <mask id="mask0_24_110" style="mask-type:luminance" maskUnits="userSpaceOnUse" x="223" y="114"
        width="72" height="274">
        <path
            d="M293.557 114.861H223.54V296.48H240.491L242.546 307.281H246.657C246.657 307.281 247.693 320.647 243.583 323.211C243.583 323.211 248.203 339.668 246.657 341.722C247.957 342.337 248.571 342.741 248.571 344.392L252.682 387.088H262.079L265.891 334.943C265.94 334.189 266.144 333.453 266.492 332.782C266.84 332.111 267.323 331.519 267.911 331.044H268.684C266.77 328.515 272.496 308.212 272.496 308.212C267.402 305.033 268.684 288.507 268.684 288.507H273.761L276.308 275.159H276.817C275.885 275.159 274.992 274.789 274.333 274.13C273.674 273.471 273.304 272.578 273.304 271.646V262.671C273.304 261.74 273.674 260.846 274.333 260.187C274.992 259.529 275.885 259.159 276.817 259.159H277.063C276.985 258.92 276.944 258.672 276.94 258.421V252.098C276.945 251.435 277.211 250.801 277.682 250.334C278.153 249.867 278.789 249.604 279.452 249.604H294.629L293.557 114.861Z"
            fill="white" />
    </mask>
    <path d="M462.329 74.2554L467.616 10.0449H471.006V74.2554" stroke="#645CBB"
        stroke-opacity="0.23" stroke-width="0.75" stroke-linecap="round" stroke-linejoin="round" />
    <path d="M449.172 151.568L439.511 387.089L413.039 386.614" stroke="#645CBB"
        stroke-opacity="0.23" stroke-width="0.75" stroke-linecap="round" stroke-linejoin="round" />
    <path d="M407.717 139.326C418.695 118.971 433.064 101.18 451.736 88.0073L449.629 139.414"
        stroke="#645CBB" stroke-opacity="0.23" stroke-width="0.75" stroke-linecap="round"
        stroke-linejoin="round" />
    <path d="M387.85 387.088H379.067C379.067 387.088 357.69 247.005 401.903 151.269"
        stroke="#645CBB" stroke-opacity="0.23" stroke-width="0.75" stroke-linecap="round"
        stroke-linejoin="round" />
    <path d="M476.135 151.568V387.089H492.665H550.263" stroke="#645CBB" stroke-opacity="0.23"
        stroke-width="0.75" stroke-linecap="round" stroke-linejoin="round" />
    <path d="M393.014 138.905C420.926 91.9763 452.281 74.624 452.281 74.624H476.135V139.274"
        stroke="#645CBB" stroke-opacity="0.23" stroke-width="0.75" stroke-linecap="round"
        stroke-linejoin="round" />
    <path d="M345.113 387.088H355.283C340.791 272.683 362.994 195.019 389.097 146.58"
        stroke="#645CBB" stroke-opacity="0.23" stroke-width="0.75" stroke-linecap="round"
        stroke-linejoin="round" />
    <path
        d="M484.637 144.437V151.251H392.259C392.259 151.251 393.155 148.459 388.465 145.982C384.548 144.168 380.334 143.079 376.028 142.768V139.765H484.637V144.437Z"
        stroke="#645CBB" stroke-opacity="0.23" stroke-width="0.75" stroke-linecap="round"
        stroke-linejoin="round" />
    <path d="M304.782 331.009C306.38 331.764 307.153 332.256 307.153 334.311L312.23 387.088H345.113"
        stroke="#645CBB" stroke-opacity="0.23" stroke-width="0.75" stroke-linecap="round"
        stroke-linejoin="round" />
    <path
        d="M256.687 387.088H261.956L265.768 334.943C265.817 334.189 266.021 333.453 266.369 332.782C266.717 332.111 267.2 331.519 267.788 331.044"
        stroke="#645CBB" stroke-opacity="0.23" stroke-width="0.75" stroke-linecap="round"
        stroke-linejoin="round" />
    <path
        d="M300.97 308.124C306.064 304.946 304.782 288.419 304.782 288.419H299.688L297.158 275.071H276.237L273.69 288.419H268.614C268.614 288.419 267.332 304.946 272.426 308.124C272.426 308.124 266.699 328.48 268.614 330.956C270.107 332.959 278.222 337.261 286.707 336.91C295.208 337.261 303.324 332.959 304.817 330.956C306.696 328.48 300.97 308.124 300.97 308.124Z"
        stroke="#645CBB" stroke-opacity="0.23" stroke-width="0.75" stroke-linecap="round"
        stroke-linejoin="round" />
    <path
        d="M298.563 290.983L299.934 299.273H290.747L287.444 294.39H286.197L282.912 299.273H273.726L275.096 290.983H287.005H298.563Z"
        stroke="#645CBB" stroke-opacity="0.23" stroke-width="0.75" stroke-linecap="round"
        stroke-linejoin="round" />
    <path d="M291.801 306.439L286.83 301.468L281.858 306.439H291.801Z" stroke="#645CBB"
        stroke-opacity="0.23" stroke-width="0.75" stroke-linecap="round" stroke-linejoin="round" />
    <path
        d="M278.486 319.98C278.486 319.458 278.693 318.958 279.062 318.589C279.431 318.22 279.931 318.013 280.453 318.013H293.417"
        stroke="#645CBB" stroke-opacity="0.23" stroke-width="0.75" stroke-linecap="round"
        stroke-linejoin="round" />
    <path
        d="M294.506 249.552H279.347C277.959 249.552 276.835 250.676 276.835 252.063V258.351C276.835 259.738 277.959 260.862 279.347 260.862H294.506C295.893 260.862 297.018 259.738 297.018 258.351V252.063C297.018 250.676 295.893 249.552 294.506 249.552Z"
        stroke="#645CBB" stroke-opacity="0.23" stroke-width="0.75" stroke-linecap="round"
        stroke-linejoin="round" />
    <path
        d="M297.509 259.106C298.441 259.106 299.335 259.476 299.994 260.135C300.652 260.794 301.023 261.687 301.023 262.619V271.593C301.023 272.525 300.652 273.418 299.994 274.077C299.335 274.736 298.441 275.106 297.509 275.106H276.712C275.78 275.106 274.886 274.736 274.227 274.077C273.569 273.418 273.198 272.525 273.198 271.593V262.619C273.198 261.687 273.569 260.794 274.227 260.135C274.886 259.476 275.78 259.106 276.712 259.106"
        stroke="#645CBB" stroke-opacity="0.23" stroke-width="0.75" stroke-linecap="round"
        stroke-linejoin="round" />
    <path d="M298.563 387.088V346.395" stroke="#645CBB" stroke-opacity="0.23" stroke-width="0.75"
        stroke-linecap="round" stroke-linejoin="round" />
    <path d="M273.971 387.088V346.395" stroke="#645CBB" stroke-opacity="0.23" stroke-width="0.75"
        stroke-linecap="round" stroke-linejoin="round" />
    <path
        d="M246.569 341.723C247.869 342.337 248.484 342.741 248.484 344.392L252.594 387.088H256.687"
        stroke="#645CBB" stroke-opacity="0.23" stroke-width="0.75" stroke-linecap="round"
        stroke-linejoin="round" />
    <path
        d="M207.731 387.088H212.017L215.109 344.937C215.148 344.326 215.314 343.729 215.595 343.185C215.876 342.641 216.267 342.161 216.742 341.775"
        stroke="#645CBB" stroke-opacity="0.23" stroke-width="0.75" stroke-linecap="round"
        stroke-linejoin="round" />
    <path d="M221.731 354.175V387.088" stroke="#645CBB" stroke-opacity="0.23" stroke-width="0.75"
        stroke-linecap="round" stroke-linejoin="round" />
    <path d="M241.545 354.175V387.088" stroke="#645CBB" stroke-opacity="0.23" stroke-width="0.75"
        stroke-linecap="round" stroke-linejoin="round" />
    <path
        d="M243.495 323.211C247.605 320.647 246.569 307.282 246.569 307.282H242.459L240.403 296.48H223.54L221.485 307.282H217.375C217.375 307.282 216.338 320.647 220.449 323.211C220.449 323.211 215.829 339.668 217.375 341.723C218.587 343.339 225.156 346.834 232.024 346.535C238.875 346.834 245.445 343.339 246.657 341.723C248.132 339.668 243.495 323.211 243.495 323.211Z"
        stroke="#645CBB" stroke-opacity="0.23" stroke-width="0.75" stroke-linecap="round"
        stroke-linejoin="round" />
    <path
        d="M241.387 311.866L242.476 318.575H235.028L232.376 314.623H231.357L228.687 318.575H221.239L222.346 311.866H232.007H241.387Z"
        stroke="#645CBB" stroke-opacity="0.23" stroke-width="0.75" stroke-linecap="round"
        stroke-linejoin="round" />
    <path d="M235.889 324.388L231.866 320.366L227.826 324.388H235.889Z" stroke="#645CBB"
        stroke-opacity="0.23" stroke-width="0.75" stroke-linecap="round" stroke-linejoin="round" />
    <path
        d="M225.104 335.365C225.104 334.941 225.272 334.534 225.572 334.235C225.872 333.935 226.278 333.767 226.702 333.767H237.241"
        stroke="#645CBB" stroke-opacity="0.23" stroke-width="0.75" stroke-linecap="round"
        stroke-linejoin="round" />
    <path
        d="M198.702 348.888C199.791 349.398 200.301 349.749 200.301 351.136L203.814 387.088H207.327"
        stroke="#645CBB" stroke-opacity="0.23" stroke-width="0.75" stroke-linecap="round"
        stroke-linejoin="round" />
    <path
        d="M173.531 348.906C173.127 349.23 172.795 349.635 172.557 350.095C172.318 350.554 172.177 351.059 172.143 351.575L169.543 382.117L168.577 386.561"
        stroke="#645CBB" stroke-opacity="0.23" stroke-width="0.75" stroke-linecap="round"
        stroke-linejoin="round" />
    <path d="M177.781 359.374V387.088" stroke="#645CBB" stroke-opacity="0.23" stroke-width="0.75"
        stroke-linecap="round" stroke-linejoin="round" />
    <path d="M194.451 359.374V387.088" stroke="#645CBB" stroke-opacity="0.23" stroke-width="0.75"
        stroke-linecap="round" stroke-linejoin="round" />
    <path
        d="M196.103 333.31C199.616 331.132 198.702 319.874 198.702 319.874H195.189L193.433 310.776H179.152L177.395 319.874H173.882C173.882 319.874 173.021 331.132 176.482 333.31C176.482 333.31 172.582 347.167 173.882 348.888C174.901 350.241 180.434 353.174 186.178 352.945C191.975 353.174 197.508 350.241 198.474 348.888C200.002 347.167 196.103 333.31 196.103 333.31Z"
        stroke="#645CBB" stroke-opacity="0.23" stroke-width="0.75" stroke-linecap="round"
        stroke-linejoin="round" />
    <path
        d="M194.803 322.667L195.786 328.638H189.164L186.793 325.126H185.879L183.526 328.638H176.903L177.869 322.667H186.459H194.803Z"
        stroke="#645CBB" stroke-opacity="0.23" stroke-width="0.75" stroke-linecap="round"
        stroke-linejoin="round" />
    <path d="M189.919 333.819L186.336 330.236L182.753 333.819H189.919Z" stroke="#645CBB"
        stroke-opacity="0.23" stroke-width="0.75" stroke-linecap="round" stroke-linejoin="round" />
    <path
        d="M180.329 343.567C180.329 343.19 180.478 342.828 180.745 342.561C181.012 342.294 181.374 342.145 181.751 342.145H191.079"
        stroke="#645CBB" stroke-opacity="0.23" stroke-width="0.75" stroke-linecap="round"
        stroke-linejoin="round" />
    <path d="M330.744 323.404L330.27 387.088" stroke="#645CBB" stroke-opacity="0.23"
        stroke-width="0.75" stroke-linecap="round" stroke-linejoin="round" />
    <path d="M330.41 322.93C330.41 322.93 325.615 320.138 322.646 323.439" stroke="#645CBB"
        stroke-opacity="0.23" stroke-width="0.75" stroke-linecap="round" stroke-linejoin="round" />
    <path d="M330.41 322.93C330.41 322.93 325.843 322.772 324.086 326.18" stroke="#645CBB"
        stroke-opacity="0.23" stroke-width="0.75" stroke-linecap="round" stroke-linejoin="round" />
    <path
        d="M330.691 323C329.942 321.552 328.711 320.409 327.212 319.768C325.712 319.127 324.035 319.028 322.47 319.488"
        stroke="#645CBB" stroke-opacity="0.23" stroke-width="0.75" stroke-linecap="round"
        stroke-linejoin="round" />
    <path d="M331.13 322.93C331.13 322.93 335.926 320.138 338.894 323.439" stroke="#645CBB"
        stroke-opacity="0.23" stroke-width="0.75" stroke-linecap="round" stroke-linejoin="round" />
    <path d="M331.13 322.93C331.13 322.93 335.697 322.772 337.454 326.18" stroke="#645CBB"
        stroke-opacity="0.23" stroke-width="0.75" stroke-linecap="round" stroke-linejoin="round" />
    <path
        d="M330.884 323C331.634 321.552 332.864 320.409 334.364 319.768C335.864 319.127 337.54 319.028 339.105 319.488"
        stroke="#645CBB" stroke-opacity="0.23" stroke-width="0.75" stroke-linecap="round"
        stroke-linejoin="round" />
    <path d="M168.577 386.561H150.871H142.527L51.8178 268.59L1.12311 330.816" stroke="#645CBB"
        stroke-opacity="0.23" stroke-width="0.75" stroke-linecap="round" stroke-linejoin="round" />
    <path d="M28.35 365.942L52.2218 337.859L91.4285 386.561" stroke="#645CBB" stroke-opacity="0.23"
        stroke-width="0.75" stroke-linecap="round" stroke-linejoin="round" />
    <path d="M52.0637 275.299L27.0325 356.722" stroke="#645CBB" stroke-opacity="0.23"
        stroke-width="0.75" stroke-linecap="round" stroke-linejoin="round" />
    <path d="M52.0637 347.466L46.8467 382.697" stroke="#645CBB" stroke-opacity="0.23"
        stroke-width="0.75" stroke-linecap="round" stroke-linejoin="round" />
    <path d="M63.4463 387.088H44.5104L-18.3573 308.985L-83.8774 387.088H-94.1709H-135.89"
        stroke="#645CBB" stroke-opacity="0.23" stroke-width="0.75" stroke-linecap="round"
        stroke-linejoin="round" />
    <path d="M83.2429 311.058H74.8992" stroke="#645CBB" stroke-opacity="0.23" stroke-width="0.75"
        stroke-linecap="round" stroke-linejoin="round" />
    <path d="M86.7559 315.448H78.4122" stroke="#645CBB" stroke-opacity="0.23" stroke-width="0.75"
        stroke-linecap="round" stroke-linejoin="round" />
    <path d="M81.4687 348.818H73.1249" stroke="#645CBB" stroke-opacity="0.23" stroke-width="0.75"
        stroke-linecap="round" stroke-linejoin="round" />
    <path d="M106.5 357.6H98.1561" stroke="#645CBB" stroke-opacity="0.23" stroke-width="0.75"
        stroke-linecap="round" stroke-linejoin="round" />
    <path d="M80.608 326.425H68.312" stroke="#645CBB" stroke-opacity="0.23" stroke-width="0.75"
        stroke-linecap="round" stroke-linejoin="round" />
    <path d="M80.608 330.377H68.312" stroke="#645CBB" stroke-opacity="0.23" stroke-width="0.75"
        stroke-linecap="round" stroke-linejoin="round" />
    <path d="M74.46 327.304V330.377" stroke="#645CBB" stroke-opacity="0.23" stroke-width="0.75"
        stroke-linecap="round" stroke-linejoin="round" />
    <path d="M123.644 369.455H111.348" stroke="#645CBB" stroke-opacity="0.23" stroke-width="0.75"
        stroke-linecap="round" stroke-linejoin="round" />
    <path d="M130.67 373.406H111.348" stroke="#645CBB" stroke-opacity="0.23" stroke-width="0.75"
        stroke-linecap="round" stroke-linejoin="round" />
    <path d="M117.496 370.333V373.407" stroke="#645CBB" stroke-opacity="0.23" stroke-width="0.75"
        stroke-linecap="round" stroke-linejoin="round" />
    <path d="M62.8315 308.669H50.5355" stroke="#645CBB" stroke-opacity="0.23" stroke-width="0.75"
        stroke-linecap="round" stroke-linejoin="round" />
    <path d="M68.1187 312.621H50.5355" stroke="#645CBB" stroke-opacity="0.23" stroke-width="0.75"
        stroke-linecap="round" stroke-linejoin="round" />
    <path d="M56.6835 309.547V312.62" stroke="#645CBB" stroke-opacity="0.23" stroke-width="0.75"
        stroke-linecap="round" stroke-linejoin="round" />
    <path d="M19.128 355.844H6.83203" stroke="#645CBB" stroke-opacity="0.23" stroke-width="0.75"
        stroke-linecap="round" stroke-linejoin="round" />
    <path d="M22.6412 359.795H6.83203" stroke="#645CBB" stroke-opacity="0.23" stroke-width="0.75"
        stroke-linecap="round" stroke-linejoin="round" />
    <path d="M12.98 356.722V359.795" stroke="#645CBB" stroke-opacity="0.23" stroke-width="0.75"
        stroke-linecap="round" stroke-linejoin="round" />
    <path d="M7.27116 376.041H0.244873" stroke="#645CBB" stroke-opacity="0.23" stroke-width="0.75"
        stroke-linecap="round" stroke-linejoin="round" />
    <path d="M76.6557 372.528H69.6295" stroke="#645CBB" stroke-opacity="0.23" stroke-width="0.75"
        stroke-linecap="round" stroke-linejoin="round" />
    <path d="M65.238 363.729H61.7249" stroke="#645CBB" stroke-opacity="0.23" stroke-width="0.75"
        stroke-linecap="round" stroke-linejoin="round" />
    <mask id="mask1_24_110" style="mask-type:luminance" maskUnits="userSpaceOnUse" x="374" y="88"
        width="78" height="300">
        <path
            d="M387.85 387.088H379.067C379.067 387.088 345.411 163.037 451.737 88.0073L439.44 387.088L412.951 386.614"
            fill="white" />
    </mask>
    <g mask="url(#mask1_24_110)">
        <path d="M462.487 362.975H365.805V369.209H462.487V362.975Z" stroke="#645CBB"
            stroke-opacity="0.23" stroke-width="0.75" stroke-linecap="round" stroke-linejoin="round" />
        <path d="M462.487 350.469H365.805V356.704H462.487V350.469Z" stroke="#645CBB"
            stroke-opacity="0.23" stroke-width="0.75" stroke-linecap="round" stroke-linejoin="round" />
        <path d="M462.487 337.964H365.805V344.199H462.487V337.964Z" stroke="#645CBB"
            stroke-opacity="0.23" stroke-width="0.75" stroke-linecap="round" stroke-linejoin="round" />
        <path d="M462.487 325.477H365.805V331.712H462.487V325.477Z" stroke="#645CBB"
            stroke-opacity="0.23" stroke-width="0.75" stroke-linecap="round" stroke-linejoin="round" />
        <path d="M462.487 312.972H365.805V319.207H462.487V312.972Z" stroke="#645CBB"
            stroke-opacity="0.23" stroke-width="0.75" stroke-linecap="round" stroke-linejoin="round" />
        <path d="M462.487 300.467H365.805V306.702H462.487V300.467Z" stroke="#645CBB"
            stroke-opacity="0.23" stroke-width="0.75" stroke-linecap="round" stroke-linejoin="round" />
        <path d="M462.487 287.963H365.805V294.198H462.487V287.963Z" stroke="#645CBB"
            stroke-opacity="0.23" stroke-width="0.75" stroke-linecap="round" stroke-linejoin="round" />
        <path d="M462.487 275.458H365.805V281.693H462.487V275.458Z" stroke="#645CBB"
            stroke-opacity="0.23" stroke-width="0.75" stroke-linecap="round" stroke-linejoin="round" />
        <path d="M462.487 262.953H365.805V269.188H462.487V262.953Z" stroke="#645CBB"
            stroke-opacity="0.23" stroke-width="0.75" stroke-linecap="round" stroke-linejoin="round" />
        <path d="M462.487 250.448H365.805V256.683H462.487V250.448Z" stroke="#645CBB"
            stroke-opacity="0.23" stroke-width="0.75" stroke-linecap="round" stroke-linejoin="round" />
        <path d="M462.487 237.943H365.805V244.178H462.487V237.943Z" stroke="#645CBB"
            stroke-opacity="0.23" stroke-width="0.75" stroke-linecap="round" stroke-linejoin="round" />
        <path d="M462.487 225.438H365.805V231.673H462.487V225.438Z" stroke="#645CBB"
            stroke-opacity="0.23" stroke-width="0.75" stroke-linecap="round" stroke-linejoin="round" />
        <path d="M462.487 212.933H365.805V219.168H462.487V212.933Z" stroke="#645CBB"
            stroke-opacity="0.23" stroke-width="0.75" stroke-linecap="round" stroke-linejoin="round" />
        <path d="M462.487 200.428H365.805V206.663H462.487V200.428Z" stroke="#645CBB"
            stroke-opacity="0.23" stroke-width="0.75" stroke-linecap="round" stroke-linejoin="round" />
        <path d="M472.71 187.923H376.028V194.158H472.71V187.923Z" stroke="#645CBB"
            stroke-opacity="0.23" stroke-width="0.75" stroke-linecap="round" stroke-linejoin="round" />
        <path d="M472.71 173.872H376.028V180.107H472.71V173.872Z" stroke="#645CBB"
            stroke-opacity="0.23" stroke-width="0.75" stroke-linecap="round" stroke-linejoin="round" />
        <path d="M472.727 159.805H392.083V166.04H472.727V159.805Z" stroke="#645CBB"
            stroke-opacity="0.23" stroke-width="0.75" stroke-linecap="round" stroke-linejoin="round" />
    </g>
    <path d="M475.362 372.159H467.897" stroke="#645CBB" stroke-opacity="0.23" stroke-width="0.75"
        stroke-linecap="round" stroke-linejoin="round" />
    <path d="M475.362 360.744H467.897" stroke="#645CBB" stroke-opacity="0.23" stroke-width="0.75"
        stroke-linecap="round" stroke-linejoin="round" />
    <path d="M475.362 349.029H467.897" stroke="#645CBB" stroke-opacity="0.23" stroke-width="0.75"
        stroke-linecap="round" stroke-linejoin="round" />
    <path d="M475.362 337.613H467.897" stroke="#645CBB" stroke-opacity="0.23" stroke-width="0.75"
        stroke-linecap="round" stroke-linejoin="round" />
    <path d="M475.362 325.916H467.897" stroke="#645CBB" stroke-opacity="0.23" stroke-width="0.75"
        stroke-linecap="round" stroke-linejoin="round" />
    <path d="M475.362 314.5H467.897" stroke="#645CBB" stroke-opacity="0.23" stroke-width="0.75"
        stroke-linecap="round" stroke-linejoin="round" />
    <path d="M475.362 302.786H467.897" stroke="#645CBB" stroke-opacity="0.23" stroke-width="0.75"
        stroke-linecap="round" stroke-linejoin="round" />
    <path d="M475.362 291.37H467.897" stroke="#645CBB" stroke-opacity="0.23" stroke-width="0.75"
        stroke-linecap="round" stroke-linejoin="round" />
    <path d="M475.362 279.655H467.897" stroke="#645CBB" stroke-opacity="0.23" stroke-width="0.75"
        stroke-linecap="round" stroke-linejoin="round" />
    <path d="M475.362 268.239H467.897" stroke="#645CBB" stroke-opacity="0.23" stroke-width="0.75"
        stroke-linecap="round" stroke-linejoin="round" />
    <path d="M475.362 256.542H467.897" stroke="#645CBB" stroke-opacity="0.23" stroke-width="0.75"
        stroke-linecap="round" stroke-linejoin="round" />
    <path d="M475.362 245.126H467.897" stroke="#645CBB" stroke-opacity="0.23" stroke-width="0.75"
        stroke-linecap="round" stroke-linejoin="round" />
    <path d="M475.362 233.412H467.897" stroke="#645CBB" stroke-opacity="0.23" stroke-width="0.75"
        stroke-linecap="round" stroke-linejoin="round" />
    <path d="M475.362 221.995H467.897" stroke="#645CBB" stroke-opacity="0.23" stroke-width="0.75"
        stroke-linecap="round" stroke-linejoin="round" />
    <path d="M475.362 210.281H467.897" stroke="#645CBB" stroke-opacity="0.23" stroke-width="0.75"
        stroke-linecap="round" stroke-linejoin="round" />
    <path d="M475.362 198.865H467.897" stroke="#645CBB" stroke-opacity="0.23" stroke-width="0.75"
        stroke-linecap="round" stroke-linejoin="round" />
    <path d="M475.362 187.168H467.897" stroke="#645CBB" stroke-opacity="0.23" stroke-width="0.75"
        stroke-linecap="round" stroke-linejoin="round" />
    <path d="M475.362 175.752H467.897" stroke="#645CBB" stroke-opacity="0.23" stroke-width="0.75"
        stroke-linecap="round" stroke-linejoin="round" />
    <path d="M475.362 162.861H467.897" stroke="#645CBB" stroke-opacity="0.23" stroke-width="0.75"
        stroke-linecap="round" stroke-linejoin="round" />
    <path d="M475.362 132.125H467.897" stroke="#645CBB" stroke-opacity="0.23" stroke-width="0.75"
        stroke-linecap="round" stroke-linejoin="round" />
    <path d="M475.362 120.709H467.897" stroke="#645CBB" stroke-opacity="0.23" stroke-width="0.75"
        stroke-linecap="round" stroke-linejoin="round" />
    <path d="M475.362 107.836H467.897" stroke="#645CBB" stroke-opacity="0.23" stroke-width="0.75"
        stroke-linecap="round" stroke-linejoin="round" />
    <path d="M475.362 91.7305H467.897" stroke="#645CBB" stroke-opacity="0.23" stroke-width="0.75"
        stroke-linecap="round" stroke-linejoin="round" />
    <path
        d="M473.588 5.60151C473.574 6.49459 473.297 7.36366 472.791 8.09952C472.284 8.83538 471.572 9.40522 470.742 9.73743C469.913 10.0696 469.004 10.1494 468.13 9.96672C467.255 9.78403 466.454 9.34702 465.828 8.71061C465.201 8.07419 464.776 7.26675 464.607 6.38975C464.438 5.51274 464.531 4.60528 464.876 3.78139C465.221 2.95749 465.802 2.25391 466.546 1.75905C467.29 1.26418 468.163 1.00011 469.056 1C469.657 1.00228 470.251 1.12337 470.804 1.35629C471.358 1.58922 471.859 1.92936 472.281 2.35712C472.702 2.78488 473.034 3.2918 473.259 3.84863C473.483 4.40547 473.595 5.00121 473.588 5.60151Z"
        stroke="#645CBB" stroke-opacity="0.23" stroke-width="0.75" stroke-linecap="round"
        stroke-linejoin="round" />
    <path d="M520.893 323.404L520.418 387.088" stroke="#645CBB" stroke-opacity="0.23"
        stroke-width="0.75" stroke-linecap="round" stroke-linejoin="round" />
    <path d="M520.559 322.93C520.559 322.93 515.764 320.138 512.795 323.439" stroke="#645CBB"
        stroke-opacity="0.23" stroke-width="0.75" stroke-linecap="round" stroke-linejoin="round" />
    <path d="M520.559 322.93C520.559 322.93 515.992 322.772 514.235 326.18" stroke="#645CBB"
        stroke-opacity="0.23" stroke-width="0.75" stroke-linecap="round" stroke-linejoin="round" />
    <path
        d="M520.805 323C520.055 321.552 518.825 320.409 517.325 319.768C515.825 319.127 514.149 319.028 512.584 319.488"
        stroke="#645CBB" stroke-opacity="0.23" stroke-width="0.75" stroke-linecap="round"
        stroke-linejoin="round" />
    <path d="M521.279 322.93C521.279 322.93 526.075 320.138 529.043 323.439" stroke="#645CBB"
        stroke-opacity="0.23" stroke-width="0.75" stroke-linecap="round" stroke-linejoin="round" />
    <path d="M521.279 322.93C521.279 322.93 525.846 322.772 527.603 326.18" stroke="#645CBB"
        stroke-opacity="0.23" stroke-width="0.75" stroke-linecap="round" stroke-linejoin="round" />
    <path
        d="M521.033 323C521.783 321.552 523.013 320.409 524.513 319.768C526.013 319.127 527.689 319.028 529.254 319.488"
        stroke="#645CBB" stroke-opacity="0.23" stroke-width="0.75" stroke-linecap="round"
        stroke-linejoin="round" />
    <path d="M505.523 297.042L505.048 387.088" stroke="#645CBB" stroke-opacity="0.23"
        stroke-width="0.75" stroke-linecap="round" stroke-linejoin="round" />
    <path d="M505.189 296.568C505.189 296.568 500.394 293.776 497.425 297.078" stroke="#645CBB"
        stroke-opacity="0.23" stroke-width="0.75" stroke-linecap="round" stroke-linejoin="round" />
    <path d="M505.189 296.568C505.189 296.568 500.622 296.41 498.865 299.817" stroke="#645CBB"
        stroke-opacity="0.23" stroke-width="0.75" stroke-linecap="round" stroke-linejoin="round" />
    <path
        d="M505.435 296.638C504.685 295.19 503.455 294.047 501.955 293.406C500.455 292.765 498.779 292.666 497.214 293.126"
        stroke="#645CBB" stroke-opacity="0.23" stroke-width="0.75" stroke-linecap="round"
        stroke-linejoin="round" />
    <path d="M505.909 296.568C505.909 296.568 510.705 293.776 513.673 297.078" stroke="#645CBB"
        stroke-opacity="0.23" stroke-width="0.75" stroke-linecap="round" stroke-linejoin="round" />
    <path d="M505.909 296.568C505.909 296.568 510.476 296.41 512.233 299.817" stroke="#645CBB"
        stroke-opacity="0.23" stroke-width="0.75" stroke-linecap="round" stroke-linejoin="round" />
    <path
        d="M505.663 296.638C506.413 295.19 507.643 294.047 509.143 293.406C510.643 292.765 512.319 292.666 513.884 293.126"
        stroke="#645CBB" stroke-opacity="0.23" stroke-width="0.75" stroke-linecap="round"
        stroke-linejoin="round" />
    <path
        d="M-5.06003 260.845H93.0796C94.0766 260.868 95.042 260.495 95.7634 259.806C96.4849 259.118 96.9032 258.171 96.9265 257.174C96.9498 256.178 96.5761 255.212 95.8876 254.491C95.1991 253.77 94.2523 253.351 93.2553 253.328C92.7164 252.979 92.0953 252.778 91.4542 252.744C90.8131 252.71 90.1744 252.845 89.6016 253.135C89.3562 252.559 89.0046 252.035 88.5653 251.589C87.8239 250.854 86.859 250.385 85.8223 250.258C84.7856 250.131 83.736 250.352 82.8388 250.887C82.6679 249.618 82.1447 248.422 81.3286 247.436C80.5125 246.449 79.4362 245.711 78.2217 245.305C77.0072 244.899 75.7032 244.841 74.4577 245.139C73.2122 245.436 72.075 246.077 71.1752 246.988C70.6705 247.509 70.2445 248.1 69.9105 248.744C69.4543 247.542 68.7105 246.47 67.7439 245.621C66.7774 244.773 65.6176 244.175 64.3662 243.878C63.1147 243.582 61.8097 243.597 60.5653 243.921C59.3208 244.246 58.175 244.871 57.228 245.741C56.8952 244.155 56.1401 242.689 55.0426 241.497C53.9451 240.305 52.546 239.432 50.993 238.97C49.44 238.507 47.791 238.473 46.2201 238.87C44.6492 239.268 43.215 240.082 42.0688 241.227C41.9017 241.388 41.7434 241.558 41.5945 241.737C41.5507 239.433 40.9666 237.172 39.8892 235.135C38.8119 233.099 37.2713 231.343 35.3916 230.011C33.5119 228.678 31.3455 227.805 29.0669 227.462C26.7882 227.12 24.4609 227.317 22.2722 228.037C20.4853 225.335 18.0561 223.119 15.202 221.586C12.3479 220.054 9.15818 219.253 5.91854 219.256C2.98144 219.131 0.0611694 219.759 -2.56453 221.081C-5.19024 222.403 -7.43406 224.374 -9.08258 226.808"
        stroke="#645CBB" stroke-opacity="0.23" stroke-width="0.75" stroke-linecap="round"
        stroke-linejoin="round" />
    <path
        d="M218.868 146.949L219.746 146.229C222.153 144.156 223.821 142.119 223.435 141.68C223.048 141.241 220.782 142.558 218.376 144.631L217.41 140.503L218.745 139.414C221.169 137.342 222.82 135.305 222.451 134.866C222.082 134.427 219.799 135.744 217.375 137.816L216.883 138.255L216.163 135.199L217.287 134.268C221.011 131.072 223.575 127.911 222.996 127.243C222.416 126.576 219.008 128.543 215.337 131.669L213.58 124.433C224.506 114.334 231.603 106.097 230.338 104.622C229.073 103.147 219.887 108.855 208.276 118.058L201.759 115.423C205.272 112.332 207.643 109.399 207.028 108.732C206.414 108.064 202.953 110.102 199.212 113.298L198.351 114.053L195.453 112.877L195.716 112.666C198.14 110.593 199.791 108.556 199.405 108.117C199.018 107.678 196.77 108.995 194.346 111.068L193.292 112.016L189.375 110.435C191.676 108.416 193.222 106.484 192.888 106.062C192.554 105.641 190.236 106.94 187.812 109.013L187.214 109.54L166.557 101.197C166.311 101.619 167.189 102.708 168.489 103.621L199.563 125.206L199.405 125.346C192.695 131.09 186.758 136.657 182.331 141.259L168.753 142.734C168.684 142.924 168.687 143.132 168.761 143.32C168.836 143.508 168.976 143.661 169.157 143.752L176.569 147.862C174.602 150.391 173.724 152.13 174.233 152.727C174.743 153.324 176.605 152.727 179.398 151.164L182.296 159.067C182.367 159.259 182.502 159.419 182.678 159.522C182.854 159.624 183.061 159.663 183.262 159.629L186.775 146.44C192.045 142.751 198.404 137.763 205.114 132.003L205.237 131.897L221.784 165.689C222.469 167.129 223.417 168.148 223.874 167.972L218.868 146.949Z"
        stroke="#645CBB" stroke-opacity="0.23" stroke-width="0.75" stroke-linecap="round"
        stroke-linejoin="round" />
    <path
        d="M149.887 386.561L146.585 235.765C149.632 234.818 152.266 232.862 154.054 230.219C155.842 227.576 156.677 224.403 156.421 221.223C156.166 218.042 154.835 215.044 152.648 212.72C150.461 210.396 147.549 208.886 144.389 208.437L144.266 204.222H145.531C145.687 204.196 145.829 204.116 145.932 203.995C146.034 203.875 146.09 203.722 146.09 203.563C146.09 203.405 146.034 203.252 145.932 203.131C145.829 203.011 145.687 202.93 145.531 202.905H144.881L144.495 190.751V188.995H145.601C145.775 188.99 145.94 188.918 146.062 188.793C146.183 188.669 146.251 188.501 146.251 188.327C146.251 188.155 146.183 187.99 146.061 187.868C145.939 187.746 145.774 187.678 145.601 187.678H143.845L142.738 151.129L141.631 187.713H139.875C139.702 187.713 139.537 187.781 139.415 187.903C139.293 188.025 139.225 188.19 139.225 188.363C139.225 188.537 139.293 188.704 139.414 188.828C139.535 188.953 139.701 189.025 139.875 189.03H140.981L140.577 202.905H139.875C139.719 202.93 139.576 203.011 139.474 203.131C139.371 203.252 139.315 203.405 139.315 203.563C139.315 203.722 139.371 203.875 139.474 203.995C139.576 204.116 139.719 204.196 139.875 204.222H141.139L141.017 208.367C137.804 208.724 134.812 210.178 132.546 212.483C130.28 214.788 128.879 217.804 128.578 221.022C128.276 224.24 129.094 227.464 130.893 230.149C132.691 232.835 135.361 234.818 138.452 235.765L135.15 376.023"
        stroke="#645CBB" stroke-opacity="0.23" stroke-width="0.75" stroke-linecap="round"
        stroke-linejoin="round" />
    <path d="M156.228 220.819H128.738" stroke="#645CBB" stroke-opacity="0.23" stroke-width="0.75"
        stroke-linecap="round" stroke-linejoin="round" />
    <path d="M155.561 218.413H129.212" stroke="#645CBB" stroke-opacity="0.23" stroke-width="0.5"
        stroke-linecap="round" stroke-linejoin="round" />
    <path d="M154.683 228.283H130.196" stroke="#645CBB" stroke-opacity="0.23" stroke-width="0.5"
        stroke-linecap="round" stroke-linejoin="round" />
    <path d="M155.895 226.088H129.318" stroke="#645CBB" stroke-opacity="0.23" stroke-width="0.75"
        stroke-linecap="round" stroke-linejoin="round" />
    <path d="M148.939 379.185H144.249" stroke="#645CBB" stroke-opacity="0.23" stroke-width="0.75"
        stroke-linecap="round" stroke-linejoin="round" />
    <path d="M148.939 369.525H144.249" stroke="#645CBB" stroke-opacity="0.23" stroke-width="0.75"
        stroke-linecap="round" stroke-linejoin="round" />
    <path d="M148.939 374.794H146.005" stroke="#645CBB" stroke-opacity="0.23" stroke-width="0.75"
        stroke-linecap="round" stroke-linejoin="round" />
    <path d="M148.939 363.378H144.249" stroke="#645CBB" stroke-opacity="0.23" stroke-width="0.75"
        stroke-linecap="round" stroke-linejoin="round" />
    <path d="M148.939 353.718H144.249" stroke="#645CBB" stroke-opacity="0.23" stroke-width="0.75"
        stroke-linecap="round" stroke-linejoin="round" />
    <path d="M148.939 358.987H146.005" stroke="#645CBB" stroke-opacity="0.23" stroke-width="0.75"
        stroke-linecap="round" stroke-linejoin="round" />
    <path d="M148.939 347.87H144.249" stroke="#645CBB" stroke-opacity="0.23" stroke-width="0.75"
        stroke-linecap="round" stroke-linejoin="round" />
    <path d="M148.64 338.21H144.249" stroke="#645CBB" stroke-opacity="0.23" stroke-width="0.75"
        stroke-linecap="round" stroke-linejoin="round" />
    <path d="M148.868 343.479H146.005" stroke="#645CBB" stroke-opacity="0.23" stroke-width="0.75"
        stroke-linecap="round" stroke-linejoin="round" />
    <path d="M138.382 235.765H146.585" stroke="#645CBB" stroke-opacity="0.23" stroke-width="0.75"
        stroke-linecap="round" stroke-linejoin="round" />
    <path
        d="M125.524 161.403H117.514C117.562 160.556 117.43 159.708 117.127 158.915C116.824 158.122 116.358 157.402 115.757 156.802C114.614 155.663 113.067 155.023 111.453 155.023C109.84 155.023 108.292 155.663 107.15 156.802L107.009 156.977C106.649 156.151 106.137 155.401 105.499 154.764C104.675 153.943 103.672 153.325 102.568 152.959C101.465 152.593 100.291 152.49 99.1399 152.657C98.9937 149.182 97.7351 145.846 95.5495 143.141C93.3639 140.436 90.367 138.504 87.0003 137.631C83.6336 136.757 80.0754 136.988 76.8499 138.289C73.6245 139.591 70.9024 141.894 69.0849 144.859C66.5922 143.409 63.6901 142.825 60.8307 143.197C57.9713 143.568 55.315 144.875 53.2758 146.914C52.0833 148.1 51.1345 149.508 50.4828 151.058C48.9091 150.098 47.082 149.636 45.2409 149.732C43.3998 149.827 41.6306 150.477 40.1649 151.595C38.6992 152.713 37.6054 154.247 37.0268 155.998C36.4481 157.748 36.4117 159.632 36.9221 161.403H31.2484C30.207 161.471 29.2305 161.933 28.517 162.695C27.8036 163.456 27.4066 164.461 27.4066 165.504C27.4066 166.548 27.8036 167.552 28.517 168.314C29.2305 169.075 30.207 169.537 31.2484 169.605H125.524C126.565 169.537 127.542 169.075 128.255 168.314C128.968 167.552 129.365 166.548 129.365 165.504C129.365 164.461 128.968 163.456 128.255 162.695C127.542 161.933 126.565 161.471 125.524 161.403Z"
        stroke="#645CBB" stroke-opacity="0.23" stroke-width="0.75" stroke-linecap="round"
        stroke-linejoin="round" />
    <mask id="mask2_24_110" style="mask-type:luminance" maskUnits="userSpaceOnUse" x="-93" y="132"
        width="98" height="254">
        <path
            d="M4.60114 337.033L-18.3573 308.985L-82.3492 385.332H-92.0103V132.863H4.61871L4.60114 337.033Z"
            fill="white" />
    </mask>
    <g mask="url(#mask2_24_110)">
        <path
            d="M-46.5326 142.787C-53.6995 150.514 -115.531 223.102 -76.6052 387.088H-16.4777C22.4655 223.102 -39.3834 150.514 -46.5326 142.787Z"
            stroke="#F3EEFD" stroke-width="0.75" stroke-linecap="round" stroke-linejoin="round" />
    </g>
</svg>